<?xml version="1.0" standalone="no"?>
<!DOCTYPE svg PUBLIC "-//W3C//DTD SVG 20010904//EN"
 "http://www.w3.org/TR/2001/REC-SVG-20010904/DTD/svg10.dtd">
<svg version="1.0" xmlns="http://www.w3.org/2000/svg"
 width="700.000000pt" height="700.000000pt" viewBox="0 0 700.000000 700.000000"
 preserveAspectRatio="xMidYMid meet">
<metadata>
Created by potrace 1.14, written by Peter Selinger 2001-2017
</metadata>
<g transform="translate(0.000000,700.000000) scale(0.100000,-0.100000)"
fill="#000000" stroke="none">
<path d="M0 3500 l0 -3500 3500 0 3500 0 0 1772 0 1772 -106 186 c-59 102
-108 187 -110 189 -2 2 -1 -718 0 -1600 2 -882 2 -1574 -1 -1537 l-4 67 -512
528 c-281 290 -514 529 -517 530 -3 1 -33 -36 -67 -82 l-62 -83 580 -607 c407
-424 583 -616 590 -638 5 -18 9 -81 9 -141 l0 -109 -2357 6 c-1296 4 -2772 7
-3280 7 l-923 0 0 3251 0 3251 2455 -4 2455 -4 -14 21 c-7 11 -39 66 -70 123
l-58 102 -2504 0 -2504 0 0 -3500z"/>
<path d="M3324 6239 c-664 -41 -1298 -329 -1769 -803 -215 -216 -382 -450
-515 -721 -148 -301 -234 -591 -271 -915 -16 -135 -16 -465 0 -600 108 -938
679 -1752 1516 -2160 297 -145 557 -224 880 -266 158 -20 474 -23 630 -5 527
61 1012 262 1425 591 111 88 359 329 379 368 11 21 -11 46 -413 445 l-424 423
131 67 c365 187 590 434 682 752 44 154 50 207 50 470 0 228 -2 258 -24 345
-27 111 -91 290 -133 374 -16 32 -27 60 -24 63 11 11 182 -194 259 -309 63
-95 105 -196 123 -293 24 -136 30 -446 11 -570 -66 -413 -277 -714 -635 -903
l-90 -48 312 -303 c173 -167 317 -304 322 -304 15 0 128 187 208 343 180 351
264 664 285 1063 19 346 -22 669 -125 989 -83 257 -179 458 -323 675 -546 826
-1482 1294 -2467 1232z m-669 -1888 c2 -2 28 18 57 44 352 317 892 388 1323
173 266 -133 488 -384 589 -666 105 -295 84 -659 -55 -934 -43 -84 -123 -202
-178 -261 l-45 -48 453 -453 453 -453 -84 -77 c-245 -228 -559 -412 -890 -520
-298 -98 -521 -131 -838 -123 -293 7 -499 44 -765 138 -532 186 -1001 570
-1295 1059 -181 300 -304 671 -340 1026 -16 147 -8 483 14 614 83 500 309 967
634 1312 l65 69 449 -448 c247 -246 451 -450 453 -452z"/>
<path d="M1689 4967 c-52 -61 -109 -143 -109 -156 0 -15 866 -903 877 -900 4
2 36 53 69 113 l61 111 -310 315 c-171 173 -365 370 -431 437 l-121 122 -36
-42z"/>
<path d="M3381 4499 c-305 -37 -589 -221 -742 -481 -216 -368 -185 -819 78
-1148 208 -259 551 -404 876 -370 118 12 181 29 302 81 132 57 168 78 252 148
170 144 289 345 339 575 21 94 21 298 0 392 -74 340 -291 603 -605 735 -140
59 -348 87 -500 68z m218 -330 c146 -23 262 -81 369 -183 243 -232 277 -597
83 -879 -34 -50 -164 -174 -227 -218 -64 -44 -148 -61 -299 -62 -95 -1 -147 4
-195 17 -186 51 -352 187 -433 357 -55 115 -71 179 -71 289 1 319 230 610 524
669 30 6 64 13 75 15 39 7 111 6 174 -5z"/>
<path d="M4125 2493 c-33 -18 -100 -47 -149 -64 l-88 -33 213 -210 c118 -116
306 -302 419 -413 l205 -203 63 37 c35 20 86 58 115 84 l52 47 -160 164 c-89
89 -262 267 -385 393 l-225 230 -60 -32z"/>
</g>
</svg>
